<svg width="32" height="32" viewBox="0 0 32 32" fill="none" xmlns="http://www.w3.org/2000/svg">
<g clip-path="url(#clip0_19_24)">
<path d="M16 0C24.8366 0 32 7.16344 32 16C32 24.8366 24.8366 32 16 32C7.16344 32 0 24.8366 0 16C0 7.16344 7.16344 0 16 0ZM11 16V24C11 24.5523 11.4477 25 12 25H17C17.5523 25 18 24.5523 18 24V16H11ZM17 23V24H12V23H17ZM8 11C6.89543 11 6 11.8954 6 13V20C6 21.1046 6.89543 22 8 22H10V15.2305H19V22H24C25.1046 22 26 21.1046 26 20V13C26 11.8954 25.1046 11 24 11H8ZM17 20V22H12V20H17ZM17 17V19H12V17H17Z" fill="black"/>
</g>
<defs>
<clipPath id="clip0_19_24">
<rect width="32" height="32" fill="white"/>
</clipPath>
</defs>
</svg>
