<svg width="32" height="32" viewBox="0 0 32 32" fill="none" xmlns="http://www.w3.org/2000/svg">
<g clip-path="url(#clip0_20_40)">
<path d="M16 1C24.2843 1 31 7.71573 31 16C31 24.2843 24.2843 31 16 31C7.71573 31 1 24.2843 1 16C1 7.71573 7.71573 1 16 1Z" stroke="#AE861D" stroke-width="2"/>
<path d="M8 10H24C25.1046 10 26 10.8954 26 12V19C26 20.1046 25.1046 21 24 21H20V14H10V21H8C6.89543 21 6 20.1046 6 19V12C6 10.8954 6.89543 10 8 10Z" fill="#AE861D"/>
<path d="M19 23C19 23.5523 18.5523 24 18 24H12C11.4477 24 11 23.5523 11 23V15H19V23ZM12.1426 22H17.8574V21H12.1426V22ZM12 20H18V19H12V20ZM12 18H18V17H12V18Z" fill="#AE861D"/>
</g>
<defs>
<clipPath id="clip0_20_40">
<rect width="32" height="32" fill="white"/>
</clipPath>
</defs>
</svg>
