<svg width="32" height="32" viewBox="0 0 32 32" fill="none" xmlns="http://www.w3.org/2000/svg">
<g clip-path="url(#clip0_3_8)">
<path d="M16 0C24.8366 0 32 7.16344 32 16C32 24.8366 24.8366 32 16 32C7.16344 32 0 24.8366 0 16C0 7.16344 7.16344 0 16 0ZM10 25C10 25.5523 10.4477 26 11 26H18C18.5523 26 19 25.5523 19 25V16H10V25ZM17.0312 24.0664H11.9688V22.5996H17.0312V24.0664ZM17.0312 20.4004H11.9688V18.9336H17.0312V20.4004ZM20 7V9H6.5C6.10218 9 5.72076 9.15815 5.43945 9.43945C5.15815 9.72076 5 10.1022 5 10.5V21C5 21.5523 5.44772 22 6 22H9V15H20V22H27C27.5523 22 28 21.5523 28 21V10.5C28 10.1022 27.8419 9.72076 27.5605 9.43945C27.2792 9.15815 26.8978 9 26.5 9H24V7H20Z" fill="#D9D9D9"/>
</g>
<defs>
<clipPath id="clip0_3_8">
<rect width="32" height="32" fill="white"/>
</clipPath>
</defs>
</svg>
