<svg width="32" height="32" viewBox="0 0 32 32" fill="none" xmlns="http://www.w3.org/2000/svg">
<g clip-path="url(#clip0_3_8)">
<path d="M16 0C24.8366 0 32 7.16344 32 16C32 24.8366 24.8366 32 16 32C7.16344 32 0 24.8366 0 16C0 7.16344 7.16344 0 16 0ZM8.5 25C8.5 25.5523 8.94772 26 9.5 26H16.5C17.0523 26 17.5 25.5523 17.5 25V15H8.5V25ZM15.25 23.0664H10.75V21.5996H15.25V23.0664ZM5.5 8C5.10218 8 4.72076 8.15815 4.43945 8.43945C4.15815 8.72076 4 9.10218 4 9.5V20C4 20.5523 4.44772 21 5 21H7V13.5H19V21H27C27.5523 21 28 20.5523 28 20V9.5C28 9.10218 27.8419 8.72076 27.5605 8.43945C27.2792 8.15815 26.8978 8 26.5 8H5.5ZM15.25 19.4004H10.75V17.9336H15.25V19.4004Z" fill="#D9D9D9"/>
</g>
<defs>
<clipPath id="clip0_3_8">
<rect width="32" height="32" fill="white"/>
</clipPath>
</defs>
</svg>
