<svg width="32" height="32" viewBox="0 0 32 32" fill="none" xmlns="http://www.w3.org/2000/svg">
<g clip-path="url(#clip0_20_40)">
<path d="M16 1C24.2843 1 31 7.71573 31 16C31 24.2843 24.2843 31 16 31C7.71573 31 1 24.2843 1 16C1 7.71573 7.71573 1 16 1Z" stroke="black" stroke-width="2"/>
<path d="M8 11H24C25.1046 11 26 11.8954 26 13V20C26 21.1046 25.1046 22 24 22H20V15H10V22H8C6.89543 22 6 21.1046 6 20V13C6 11.8954 6.89543 11 8 11Z" fill="black"/>
<path d="M19 24C19 24.5523 18.5523 25 18 25H12C11.4477 25 11 24.5523 11 24V16H19V24ZM12.1426 23H17.8574V22H12.1426V23ZM12 21H18V20H12V21ZM12 19H18V18H12V19Z" fill="black"/>
</g>
<defs>
<clipPath id="clip0_20_40">
<rect width="32" height="32" fill="white"/>
</clipPath>
</defs>
</svg>
