<svg width="32" height="32" viewBox="0 0 32 32" fill="none" xmlns="http://www.w3.org/2000/svg">
<g clip-path="url(#clip0_3_8)">
<path d="M16 0C24.8366 0 32 7.16344 32 16C32 24.8366 24.8366 32 16 32C7.16344 32 0 24.8366 0 16C0 7.16344 7.16344 0 16 0ZM9 14V24.5C9 25.0523 9.44772 25.5 10 25.5H17C17.5523 25.5 18 25.0523 18 24.5V14H9ZM16 22V23.5H11V22H16ZM6 9C4.89543 9 4 9.89543 4 11V20C4 21.1046 4.89543 22 6 22H8V13H19V22H26C27.1046 22 28 21.1046 28 20V11C28 9.89543 27.1046 9 26 9H6ZM16 19V20.5H11V19H16ZM16 16V17.5H11V16H16Z" fill="#D9D9D9"/>
</g>
<defs>
<clipPath id="clip0_3_8">
<rect width="32" height="32" fill="white"/>
</clipPath>
</defs>
</svg>
