<svg width="32" height="32" viewBox="0 0 32 32" fill="none" xmlns="http://www.w3.org/2000/svg">
<g clip-path="url(#clip0_3_8)">
<path d="M16 0C24.8366 0 32 7.16344 32 16C32 24.8366 24.8366 32 16 32C7.16344 32 0 24.8366 0 16C0 7.16344 7.16344 0 16 0ZM8.5 27.25C8.5 27.4489 8.57907 27.6396 8.71973 27.7803C8.86038 27.9209 9.05109 28 9.25 28H22.75C22.9489 28 23.1396 27.9209 23.2803 27.7803C23.4209 27.6396 23.5 27.4489 23.5 27.25V16.75H8.5V27.25ZM19.75 25H12.25V23.5H19.75V25ZM5.5 10C5.10218 10 4.72076 10.1581 4.43945 10.4395C4.15815 10.7208 4 11.1022 4 11.5V22C4 22.1989 4.07907 22.3896 4.21973 22.5303C4.36038 22.6709 4.55109 22.75 4.75 22.75H7V16C7 15.8011 7.07907 15.6104 7.21973 15.4697C7.36038 15.3291 7.55109 15.25 7.75 15.25H24.25C24.4489 15.25 24.6396 15.3291 24.7803 15.4697C24.9209 15.6104 25 15.8011 25 16V22.75H27.25C27.4489 22.75 27.6396 22.6709 27.7803 22.5303C27.9209 22.3896 28 22.1989 28 22V11.5C28 11.1022 27.8419 10.7208 27.5605 10.4395C27.2792 10.1581 26.8978 10 26.5 10H5.5ZM19.75 21.25H12.25V19.75H19.75V21.25ZM9.25 4C9.05109 4 8.86038 4.07907 8.71973 4.21973C8.57907 4.36038 8.5 4.55109 8.5 4.75V8.5H23.5V4.75C23.5 4.55109 23.4209 4.36038 23.2803 4.21973C23.1396 4.07907 22.9489 4 22.75 4H9.25Z" fill="#D9D9D9"/>
</g>
<defs>
<clipPath id="clip0_3_8">
<rect width="32" height="32" fill="white"/>
</clipPath>
</defs>
</svg>
