<svg width="32" height="32" viewBox="0 0 32 32" fill="none" xmlns="http://www.w3.org/2000/svg">
<g clip-path="url(#clip0_3_8)">
<path d="M16 0C24.8366 0 32 7.16344 32 16C32 24.8366 24.8366 32 16 32C7.16344 32 0 24.8366 0 16C0 7.16344 7.16344 0 16 0ZM9 24C9 24.5523 9.44772 25 10 25H16C16.5523 25 17 24.5523 17 24V15H9V24ZM15.25 23.0664H10.75V21.5996H15.25V23.0664ZM15.25 19.4004H10.75V17.9336H15.25V19.4004ZM19 6V8H5.5C5.10218 8 4.72076 8.15815 4.43945 8.43945C4.15815 8.72076 4 9.10217 4 9.5V20C4 20.5523 4.44772 21 5 21H8V14H18V21H26C26.5523 21 27 20.5523 27 20V9.5C27 9.10218 26.8419 8.72076 26.5605 8.43945C26.2792 8.15815 25.8978 8 25.5 8H23V6H19Z" fill="#D9D9D9"/>
</g>
<defs>
<clipPath id="clip0_3_8">
<rect width="32" height="32" fill="white"/>
</clipPath>
</defs>
</svg>
